<svg xmlns="http://www.w3.org/2000/svg" width="24" height="27">
    <path fill="#0077FC" fill-rule="evenodd" d="M20.838 3.409h-3.48V1.645c0-.516-.417-.934-.93-.934-.514 0-.93.418-.93.934v1.764H8.402V1.645c0-.516-.417-.934-.931-.934s-.93.418-.93.934v1.764H3.062c-1.538 0-2.79 1.257-2.79 2.802v17.852c0 1.545 1.252 2.802 2.79 2.802h17.776c1.538 0 2.79-1.257 2.79-2.802V6.211c0-1.545-1.252-2.802-2.79-2.802zM3.062 5.278h3.479v1.764c0 .516.416.934.93.934s.931-.418.931-.934V5.278h7.096v1.764c0 .516.416.934.93.934.513 0 .93-.418.93-.934V5.278h3.48c.513 0 .929.419.929.933v5.601H2.132V6.211c0-.514.417-.933.93-.933zm17.776 19.719H3.062c-.513 0-.93-.419-.93-.934V12.746h19.635v11.317c0 .515-.416.934-.929.934z"/>
</svg>
